# xmcd
#
# Track frame offsets: 
#        182
#        11660
#        24095
#        36170
#        46777
#        59567
#        76590
#        90642
#        101462
#        118202
#        134775
#        146412
#        158967
#        172852
#        183407
#        202045
#        215330
#        230977
#        244690
#        256582
#
# Disc length: 3564 seconds
#
# Revision: 5
# Processed by: cddbd v1.5.2PL0 Copyright (c) Steve Scherf et al.
# Submitted via: ExactAudioCopy v1.0b2
#
DISCID=0c0dea14
DTITLE=Ella Fitzgerald - Ella Swings Lightly
DYEAR=1958
DGENRE=Jazz
TTITLE0=Little White Lies
TTITLE1=You Hit The Spot
TTITLE2=What's Your Story, Morning Glory?
TTITLE3=Just You, Just Me
TTITLE4=As Long as I Live
TTITLE5=Teardrops from My Eyes
TTITLE6=Gotta Be This or That
TTITLE7=Moonlight on the Ganges
TTITLE8=My Kinda Love
TTITLE9=Blues in the Night
TTITLE10=If I Were a Bell
TTITLE11=You're an Old Smoothie
TTITLE12=Little Jazz
TTITLE13=You Brought a New Kind of Love to Me
TTITLE14=Knock Me a Kiss
TTITLE15=720 in the Books
TTITLE16=Oh, What a Night for Love (long version)
TTITLE17=Little Jazz (alternate take)
TTITLE18=Dreams Are Made for Children
TTITLE19=Oh, What a Night for Love (single version)
EXTD=Ella Fitzgerald's 1958 Verve Session with the Marty Paich Dek-tet
EXTD=te
EXTT0=
EXTT1=
EXTT2=
EXTT3=
EXTT4=
EXTT5=
EXTT6=
EXTT7=
EXTT8=
EXTT9=
EXTT10=
EXTT11=
EXTT12=
EXTT13=
EXTT14=
EXTT15=
EXTT16=
EXTT17=
EXTT18=
EXTT19=
PLAYORDER=
